<svg width="25" height="30" viewBox="0 0 25 30" fill="none" xmlns="http://www.w3.org/2000/svg">
<path d="M24.3624 23.0222C23.9156 24.0544 23.3868 25.0044 22.7741 25.8779C21.9389 27.0687 21.2551 27.8929 20.7281 28.3506C19.9111 29.1019 19.0358 29.4867 18.0985 29.5085C17.4256 29.5085 16.6142 29.3171 15.6696 28.9287C14.7219 28.5421 13.851 28.3506 13.0546 28.3506C12.2195 28.3506 11.3238 28.5421 10.3657 28.9287C9.40613 29.3171 8.63314 29.5195 8.04213 29.5395C7.14331 29.5778 6.24741 29.1821 5.35315 28.3506C4.78239 27.8528 4.06848 26.9994 3.21324 25.7904C2.29564 24.4993 1.54125 23.0022 0.950241 21.2954C0.317294 19.4518 0 17.6665 0 15.9382C0 13.9584 0.4278 12.2508 1.28468 10.8199C1.95811 9.67054 2.85401 8.76388 3.97529 8.09829C5.09658 7.43271 6.30814 7.09353 7.61287 7.07183C8.32678 7.07183 9.26298 7.29266 10.4264 7.72666C11.5865 8.16212 12.3314 8.38295 12.658 8.38295C12.9022 8.38295 13.7297 8.12473 15.1326 7.60995C16.4592 7.13255 17.5788 6.93488 18.4961 7.01275C20.9815 7.21334 22.8488 8.19312 24.0906 9.95829C21.8678 11.3052 20.7682 13.1916 20.7901 15.6116C20.8101 17.4966 21.4939 19.0652 22.8379 20.3107C23.4469 20.8887 24.1271 21.3355 24.8839 21.6528C24.7198 22.1287 24.5465 22.5846 24.3624 23.0222ZM18.662 0.591006C18.662 2.06845 18.1222 3.44793 17.0464 4.72476C15.748 6.24267 14.1776 7.11979 12.4746 6.98138C12.4529 6.80414 12.4403 6.61759 12.4403 6.42156C12.4403 5.00322 13.0577 3.48531 14.1542 2.24422C14.7017 1.61583 15.3979 1.09333 16.2422 0.676529C17.0846 0.265944 17.8815 0.0388776 18.631 0C18.6529 0.197506 18.662 0.395031 18.662 0.590988V0.591006Z" fill="white"/>
</svg>
